<?xml version="1.0" encoding="UTF-8" standalone="no"?>
<svg
   viewBox="0 0 26.133333 26"
   width="35"
   height="35"
   version="1.1"
   id="svg826"
   sodipodi:docname="alura-logo.1647533643.svg"
   inkscape:version="1.1.1 (c3084ef, 2021-09-22)"
   xmlns:inkscape="http://www.inkscape.org/namespaces/inkscape"
   xmlns:sodipodi="http://sodipodi.sourceforge.net/DTD/sodipodi-0.dtd"
   xmlns="http://www.w3.org/2000/svg"
   xmlns:svg="http://www.w3.org/2000/svg">
  <defs
     id="defs830" />
  <sodipodi:namedview
     id="namedview828"
     pagecolor="#ffffff"
     bordercolor="#999999"
     borderopacity="1"
     inkscape:pageshadow="0"
     inkscape:pageopacity="0"
     inkscape:pagecheckerboard="0"
     showgrid="false"
     inkscape:zoom="11.413743"
     inkscape:cx="27.335466"
     inkscape:cy="19.581656"
     inkscape:window-width="1440"
     inkscape:window-height="787"
     inkscape:window-x="0"
     inkscape:window-y="25"
     inkscape:window-maximized="0"
     inkscape:current-layer="svg826" />
  <path
     id="path1178"
     style="fill:#FFF;stroke-width:1.45687;stroke-miterlimit:4;stroke-dasharray:none"
     d="M 13.066667,-0.06666666 A 13.066346,13.066928 0 0 0 0,13 13.066346,13.066928 0 0 0 13.066667,26.066667 13.066346,13.066928 0 0 0 26.133333,13 13.066346,13.066928 0 0 0 13.066667,-0.06666666 Z m -0.0014,3.67285586 h 0.0014 0.0014 c 2.062203,3.804e-4 3.577026,0.3983364 4.54393,1.2130935 0.968359,0.7950202 1.452967,1.8174332 1.452967,3.0290845 V 18.17353 c 0,0.417637 -0.08409,0.876886 -0.230926,1.378051 -0.148825,0.503177 -0.441713,0.96142 -0.905057,1.378051 -0.441516,0.419649 -1.052773,0.774961 -1.831628,1.046676 -0.778854,0.271716 -1.788522,0.418962 -3.03072,0.418962 -1.240215,0 -2.251426,-0.147246 -3.029287,-0.418962 C 9.2594485,21.704593 8.6471992,21.349281 8.2056827,20.929632 7.7949541,20.554206 7.4836117,20.080779 7.3006261,19.551581 7.1518006,19.051422 7.0682661,18.591167 7.0682661,18.17353 v -1.649574 c 0,-0.878548 0.2308674,-1.694255 0.6942111,-2.405749 0.4633442,-0.730614 1.1154956,-1.231945 1.9578487,-1.545929 0.4206811,-0.14592 0.9048471,-0.292084 1.4515331,-0.480273 0.547679,-0.189194 1.051665,-0.376998 1.557673,-0.543046 0.506007,-0.168061 0.947295,-0.336265 1.325313,-0.483194 0.228122,-0.09257 0.459506,-0.175887 0.694211,-0.249626 l 0.380095,-0.188313 c 0.148826,-0.08352 0.293939,-0.209573 0.441771,-0.376628 0.146842,-0.166049 0.272498,-0.3541619 0.378661,-0.5634837 0.112167,-0.2266663 0.17054,-0.4762872 0.16925,-0.7298994 V 8.2892268 c 0.0017,-0.2452755 -0.04949,-0.4888783 -0.1491,-0.712383 C 15.886391,7.3252555 15.717542,7.0961343 15.486367,6.8878188 15.255191,6.6784971 14.939247,6.5109885 14.561229,6.384188 14.18222,6.2604062 13.677769,6.1973336 13.108262,6.1973336 c -1.178699,0 -1.957425,0.2318975 -2.378105,0.7109224 -0.357183,0.4186435 -0.567915,0.9407988 -0.609586,1.5254907 0,0.1257941 -0.105362,0.2087514 -0.2323602,0.2087514 L 7.3222099,8.6848319 C 7.1953025,8.6853954 7.0914826,8.5828969 7.0898499,8.4541841 V 7.8498268 c 0,-0.5867048 0.1058896,-1.1301951 0.3370653,-1.6524932 C 7.6590834,5.6740291 8.0180351,5.2360804 8.5012221,4.8586974 8.9854012,4.483327 9.617419,4.1702423 10.374445,3.9609205 11.110936,3.7095686 12.014796,3.6063841 13.065232,3.6061892 Z m 3.030721,9.2638888 c -0.03541,0.218115 -0.16581,0.409326 -0.355712,0.518229 -0.190496,0.124787 -0.357726,0.187231 -0.526396,0.249626 -0.359166,0.125794 -0.737571,0.251143 -1.137416,0.397065 -0.421673,0.145921 -0.798645,0.291398 -1.135983,0.397065 -0.420681,0.145922 -0.820525,0.271582 -1.200527,0.417503 -0.285896,0.124088 -0.554657,0.28652 -0.798916,0.481734 -0.22717,0.208757 -0.425579,0.446734 -0.589507,0.709462 -0.168669,0.291843 -0.275389,0.669217 -0.275389,1.107988 0,0.878548 0.210861,1.545794 0.632535,1.963431 0.420681,0.439776 1.200711,0.648151 2.35659,0.648151 1.178699,0 1.978389,-0.229121 2.401054,-0.689025 0.419688,-0.459904 0.629667,-1.106259 0.629667,-1.941534 z" />
</svg>
