<?xml version="1.0" encoding="UTF-8" standalone="no"?>
<svg
   version="1.1"
   width="512"
   height="512"
   x="0"
   y="0"
   viewBox="0 0 112.196 112.196"
   style="enable-background:new 0 0 512 512"
   xml:space="preserve"
   class=""
   id="svg864"
   sodipodi:docname="linkedin.svg"
   inkscape:version="1.1.1 (c3084ef, 2021-09-22)"
   xmlns:inkscape="http://www.inkscape.org/namespaces/inkscape"
   xmlns:sodipodi="http://sodipodi.sourceforge.net/DTD/sodipodi-0.dtd"
   xmlns="http://www.w3.org/2000/svg"
   xmlns:svg="http://www.w3.org/2000/svg"><defs
     id="defs868" /><sodipodi:namedview
     id="namedview866"
     pagecolor="#ffffff"
     bordercolor="#999999"
     borderopacity="1"
     inkscape:pageshadow="0"
     inkscape:pageopacity="0"
     inkscape:pagecheckerboard="0"
     showgrid="false"
     inkscape:zoom="1.1035156"
     inkscape:cx="255.5469"
     inkscape:cy="256"
     inkscape:window-width="1440"
     inkscape:window-height="787"
     inkscape:window-x="0"
     inkscape:window-y="25"
     inkscape:window-maximized="0"
     inkscape:current-layer="g830" /><g
     id="g862">
<g
   id="g830">
	<path fill="#FFF"
   id="circle824"
   style="stroke-width:4.56344"
   class=""
   d="M 256,-0.00390625 A 256,256 0 0 0 0,255.99609 a 256,256 0 0 0 256,256 256,256 0 0 0 256,-256 A 256,256 0 0 0 256,-0.00390625 Z M 158.15039,109.38086 c 20.93708,0 33.80089,13.73999 34.20703,31.79297 0,17.66965 -13.27006,31.80859 -34.61328,31.80859 h -0.39648 c -20.52637,0 -33.82422,-14.13894 -33.82422,-31.80859 0,-18.05298 13.69444,-31.79297 34.62695,-31.79297 z m 180.36523,84.39258 c 40.2587,0 70.44141,26.30403 70.44141,82.82226 v 105.54297 h -61.19141 v -98.4707 c 0,-24.72473 -8.83472,-41.60938 -30.99023,-41.60938 -16.90755,0 -26.95105,11.36798 -31.38672,22.375 -1.61089,3.93369 -2.02539,9.39491 -2.02539,14.91211 v 102.78711 h -61.19726 c 0,0 0.82142,-166.77556 0,-184.03906 h 61.20117 v 26.08008 c 8.13205,-12.51296 22.63391,-30.40039 55.14843,-30.40039 z m -55.14843,30.40039 c -0.12322,0.20535 -0.29673,0.40729 -0.40625,0.60351 h 0.40625 z M 127.16016,198.09375 h 61.17382 v 184.04492 h -61.17382 z"
   transform="scale(0.21913281)" />
	<g
   id="g828">
		
	</g>
</g>
<g
   id="g832">
</g>
<g
   id="g834">
</g>
<g
   id="g836">
</g>
<g
   id="g838">
</g>
<g
   id="g840">
</g>
<g
   id="g842">
</g>
<g
   id="g844">
</g>
<g
   id="g846">
</g>
<g
   id="g848">
</g>
<g
   id="g850">
</g>
<g
   id="g852">
</g>
<g
   id="g854">
</g>
<g
   id="g856">
</g>
<g
   id="g858">
</g>
<g
   id="g860">
</g>
</g></svg>
